<?xml version="1.0" encoding="UTF-8"?>
<!DOCTYPE svg PUBLIC "-//W3C//DTD SVG 1.1//EN" "http://www.w3.org/Graphics/SVG/1.1/DTD/svg11.dtd">
<svg xmlns="http://www.w3.org/2000/svg" version="1.1" width="597px" height="534px" style="shape-rendering:geometricPrecision; text-rendering:geometricPrecision; image-rendering:optimizeQuality; fill-rule:evenodd; clip-rule:evenodd" xmlns:xlink="http://www.w3.org/1999/xlink">
<g><path style="opacity:0.815" fill="#0d1917" d="M 413.5,132.5 C 410.061,136.14 409.895,140.14 413,144.5C 413.667,148.167 413.667,151.833 413,155.5C 410.965,165.309 408.465,174.975 405.5,184.5C 404.883,184.611 404.383,184.944 404,185.5C 400.618,199.972 399.618,214.639 401,229.5C 401.257,233.377 402.257,237.043 404,240.5C 417.028,252.867 431.195,263.7 446.5,273C 449.486,272.872 452.486,272.872 455.5,273C 456.96,277.037 459.627,279.87 463.5,281.5C 463.5,282.167 463.167,282.5 462.5,282.5C 460.883,281.962 459.216,281.629 457.5,281.5C 456.833,281.5 456.5,281.167 456.5,280.5C 457.075,277.429 455.909,275.429 453,274.5C 450.084,275.589 447.584,277.256 445.5,279.5C 445.5,278.833 445.5,278.167 445.5,277.5C 446.562,276.425 446.562,275.425 445.5,274.5C 431.551,266.724 418.551,257.557 406.5,247C 403.449,243.701 400.782,240.201 398.5,236.5C 398.5,236.167 398.5,235.833 398.5,235.5C 397.685,223.185 397.351,210.852 397.5,198.5C 397.5,198.167 397.5,197.833 397.5,197.5C 398.475,194.689 399.142,191.689 399.5,188.5C 399.5,188.167 399.5,187.833 399.5,187.5C 402.204,181.059 404.537,174.392 406.5,167.5C 406.5,166.833 406.5,166.167 406.5,165.5C 408.245,161.8 409.245,157.8 409.5,153.5C 409.5,152.833 409.5,152.167 409.5,151.5C 408.999,138.692 402.999,129.692 391.5,124.5C 389.866,123.839 388.033,123.506 386,123.5C 383.705,123.547 381.871,124.213 380.5,125.5C 378.817,125.619 377.15,125.952 375.5,126.5C 373.297,126.604 371.297,127.27 369.5,128.5C 368.508,128.328 367.842,128.662 367.5,129.5C 365.353,131.47 363.02,133.303 360.5,135C 359.748,135.671 359.414,136.504 359.5,137.5C 358.833,137.5 358.5,137.833 358.5,138.5C 355.569,140.091 352.902,142.091 350.5,144.5C 349.026,145.436 348.026,146.77 347.5,148.5C 347.5,149.167 347.167,149.5 346.5,149.5C 345.167,149.5 344.5,148.833 344.5,147.5C 352.202,136.298 362.202,127.798 374.5,122C 377.393,120.851 380.393,120.351 383.5,120.5C 387.712,120.078 391.712,120.744 395.5,122.5C 396.527,118.495 396.361,114.495 395,110.5C 384.876,92.2621 388.71,77.7621 406.5,67C 409.101,66.0797 411.768,65.413 414.5,65C 425.479,64.001 436.479,63.3343 447.5,63C 450.539,61.4229 451.872,58.9229 451.5,55.5C 454.272,55.22 456.772,55.8866 459,57.5C 466.392,67.7607 464.559,75.9273 453.5,82C 455.733,88.7314 456.066,95.5647 454.5,102.5C 454.855,105.731 455.521,108.898 456.5,112C 454.863,114.982 453.196,117.982 451.5,121C 452.787,127.747 450.12,132.413 443.5,135C 433.903,136.41 425.237,134.243 417.5,128.5C 415.812,129.521 414.479,130.855 413.5,132.5 Z M 454.5,60.5 C 459.788,64.3013 460.788,69.1347 457.5,75C 449.087,78.1376 440.754,81.4709 432.5,85C 427.888,88.6151 424.388,93.1151 422,98.5C 416.819,92.6953 412.652,93.1953 409.5,100C 409.914,102.996 411.248,105.496 413.5,107.5C 409.424,112.626 404.591,113.626 399,110.5C 388.512,86.3167 396.345,71.8167 422.5,67C 430.833,66.6667 439.167,66.3333 447.5,66C 451.072,65.5682 453.405,63.7348 454.5,60.5 Z M 409.5,130.5 C 407.703,129.27 405.703,128.604 403.5,128.5C 402.828,127.733 401.995,127.066 401,126.5C 400.788,123.242 400.288,120.076 399.5,117C 403.737,115.681 408.071,114.681 412.5,114C 418.698,109.842 418.865,105.675 413,101.5C 412.517,100.552 412.351,99.552 412.5,98.5C 415.044,98.1043 417.211,98.771 419,100.5C 420.487,104.116 421.82,107.783 423,111.5C 423.82,104.206 426.32,97.5397 430.5,91.5C 436.296,86.6787 442.962,84.012 450.5,83.5C 452.078,87.711 452.578,92.0443 452,96.5C 448.795,94.819 445.295,93.819 441.5,93.5C 441.167,93.8333 440.833,94.1667 440.5,94.5C 443.831,96.5835 447.497,97.5835 451.5,97.5C 451.334,101.846 451.501,106.179 452,110.5C 452.374,111.416 452.874,112.25 453.5,113C 449.954,113.713 447.954,115.88 447.5,119.5C 445.698,118.014 443.698,117.014 441.5,116.5C 441.872,120.043 443.872,122.21 447.5,123C 449.077,126.482 448.077,129.148 444.5,131C 435.907,133.522 427.907,132.189 420.5,127C 420.273,125.865 419.94,124.698 419.5,123.5C 416.149,125.859 412.815,128.192 409.5,130.5 Z"/></g>
<g><path style="opacity:0.799" fill="#2ecc70" d="M 383.5,120.5 C 380.393,120.351 377.393,120.851 374.5,122C 362.202,127.798 352.202,136.298 344.5,147.5C 333.215,160.785 320.881,173.119 307.5,184.5C 300.414,196.337 293.58,208.337 287,220.5C 282.93,227.24 278.096,233.407 272.5,239C 265.927,241.867 259.761,245.367 254,249.5C 248.02,260.148 249.854,269.315 259.5,277C 251.25,283.414 244.25,290.914 238.5,299.5C 234.773,304.735 230.44,309.568 225.5,314C 219.35,316.469 213.017,318.303 206.5,319.5C 205.106,321.582 205.439,323.249 207.5,324.5C 207.389,325.117 207.056,325.617 206.5,326C 190.494,329.611 174.494,332.444 158.5,334.5C 150.459,334.866 142.459,335.366 134.5,336C 129.022,327.761 121.355,324.094 111.5,325C 104.27,344.855 96.9366,364.689 89.5,384.5C 90.9868,388.331 93.8201,389.997 98,389.5C 102.783,389.607 106.45,387.607 109,383.5C 112.94,376.564 117.273,369.897 122,363.5C 124.441,360.546 127.275,358.213 130.5,356.5C 164.957,358.104 199.291,356.604 233.5,352C 237.049,351.226 240.382,349.893 243.5,348C 249.362,342.967 255.029,337.801 260.5,332.5C 274.405,322.597 287.405,311.597 299.5,299.5C 302.293,295.829 305.96,294.662 310.5,296C 319.773,298.202 328.773,301.202 337.5,305C 342.878,308.854 345.212,314.021 344.5,320.5C 340.139,328.054 336.139,335.887 332.5,344C 332.645,344.772 332.978,345.439 333.5,346C 338.155,346.499 342.821,346.666 347.5,346.5C 347.154,351.216 346.487,355.883 345.5,360.5C 343.141,366.223 340.474,371.889 337.5,377.5C 336.833,377.5 336.5,377.833 336.5,378.5C 326.617,387.214 316.283,395.381 305.5,403C 294.057,409.72 282.39,415.887 270.5,421.5C 261.61,418.92 252.61,417.087 243.5,416C 237.879,416.855 236.046,420.022 238,425.5C 239.667,426.733 241.167,428.067 242.5,429.5C 226.941,433.945 210.941,435.945 194.5,435.5C 109.886,432.721 64.7198,389.054 59,304.5C 55.6775,255.785 67.3442,211.118 94,170.5C 128.391,126.044 173.891,101.544 230.5,97C 283.209,94.2302 334.209,102.064 383.5,120.5 Z"/></g>
<g><path style="opacity:0.742" fill="#001908" d="M 445.5,100.5 C 447.976,102.121 448.142,104.121 446,106.5C 444.311,104.68 444.145,102.68 445.5,100.5 Z"/></g>
<g><path style="opacity:0.871" fill="#ffb61c" d="M 429.5,109.5 C 437.649,108.786 439.982,111.953 436.5,119C 429.877,121.616 426.71,119.45 427,112.5C 427.698,111.309 428.531,110.309 429.5,109.5 Z"/></g>
<g><path style="opacity:0.882" fill="#7947c3" d="M 391.5,124.5 C 387.766,124.323 384.099,124.656 380.5,125.5C 381.871,124.213 383.705,123.547 386,123.5C 388.033,123.506 389.866,123.839 391.5,124.5 Z"/></g>
<g><path style="opacity:1" fill="#f9f9fa" d="M 391.5,124.5 C 402.999,129.692 408.999,138.692 409.5,151.5C 408.423,152.018 407.256,152.352 406,152.5C 402.306,151.114 398.473,150.28 394.5,150C 390.376,145.507 385.376,144.173 379.5,146C 378.257,144.846 377.257,143.512 376.5,142C 373.144,141.785 369.811,141.785 366.5,142C 364.937,140.264 363.27,138.764 361.5,137.5C 363.913,135.113 366.58,132.946 369.5,131C 368.956,130.283 368.289,129.783 367.5,129.5C 367.842,128.662 368.508,128.328 369.5,128.5C 369.735,129.097 370.235,129.43 371,129.5C 372.666,128.652 374.166,127.652 375.5,126.5C 377.15,125.952 378.817,125.619 380.5,125.5C 384.099,124.656 387.766,124.323 391.5,124.5 Z"/></g>
<g><path style="opacity:0.8" fill="#31ca72" d="M 375.5,126.5 C 374.166,127.652 372.666,128.652 371,129.5C 370.235,129.43 369.735,129.097 369.5,128.5C 371.297,127.27 373.297,126.604 375.5,126.5 Z"/></g>
<g><path style="opacity:0.8" fill="#33c775" d="M 367.5,129.5 C 368.289,129.783 368.956,130.283 369.5,131C 366.58,132.946 363.913,135.113 361.5,137.5C 360.833,137.5 360.167,137.5 359.5,137.5C 359.414,136.504 359.748,135.671 360.5,135C 363.02,133.303 365.353,131.47 367.5,129.5 Z"/></g>
<g><path style="opacity:0.79" fill="#2fca71" d="M 403.5,128.5 C 405.703,128.604 407.703,129.27 409.5,130.5C 409.189,131.478 408.522,132.145 407.5,132.5C 405.812,131.479 404.479,130.145 403.5,128.5 Z"/></g>
<g><path style="opacity:0.799" fill="#2ecc70" d="M 413.5,132.5 C 454.381,150.219 487.215,177.552 512,214.5C 536.823,256.924 543.156,301.924 531,349.5C 527.007,359.493 519.84,365.993 509.5,369C 501.881,370.429 494.215,370.762 486.5,370C 462.557,365.347 438.557,361.014 414.5,357C 403.14,356.257 391.807,356.423 380.5,357.5C 385.852,347.46 390.685,337.127 395,326.5C 397.619,316.454 396.619,306.787 392,297.5C 387.105,289.27 381.438,281.604 375,274.5C 374.5,267.508 374.334,260.508 374.5,253.5C 380.205,257.353 386.205,260.686 392.5,263.5C 406.33,272.921 420.996,281.088 436.5,288C 438.5,290.333 440.5,292.667 442.5,295C 445.993,297.136 449.326,296.969 452.5,294.5C 454.63,295.467 456.63,296.634 458.5,298C 462.418,303.003 465.418,308.503 467.5,314.5C 468.167,314.833 468.833,315.167 469.5,315.5C 471.805,314.663 474.138,314.496 476.5,315C 477.249,313.266 477.749,311.433 478,309.5C 479,310.833 480,310.833 481,309.5C 483.348,295.656 477.848,286.322 464.5,281.5C 463.167,280.067 461.667,278.733 460,277.5C 459.595,273.032 457.095,271.032 452.5,271.5C 450.9,271.551 449.4,271.884 448,272.5C 438.727,264.56 428.894,257.393 418.5,251C 413.313,246.811 408.48,242.311 404,237.5C 402.717,231.736 401.884,225.903 401.5,220C 402.097,208.07 403.43,196.236 405.5,184.5C 408.465,174.975 410.965,165.309 413,155.5C 413.667,151.833 413.667,148.167 413,144.5C 409.895,140.14 410.061,136.14 413.5,132.5 Z"/></g>
<g><path style="opacity:0.8" fill="#2ecb71" d="M 358.5,138.5 C 358.833,138.5 359.167,138.5 359.5,138.5C 357.5,140.833 355.5,143.167 353.5,145.5C 352.5,145.5 351.5,145.5 350.5,145.5C 350.5,145.167 350.5,144.833 350.5,144.5C 352.902,142.091 355.569,140.091 358.5,138.5 Z"/></g>
<g><path style="opacity:1" fill="#fefaf8" d="M 359.5,138.5 C 361.34,140.168 363.34,141.668 365.5,143C 368.54,143.32 371.54,143.32 374.5,143C 376.167,144.667 377.833,146.333 379.5,148C 383.157,147.892 386.823,147.892 390.5,148C 393.092,151.82 396.758,153.487 401.5,153C 404.238,155.607 406.905,155.774 409.5,153.5C 409.245,157.8 408.245,161.8 406.5,165.5C 406.423,164.25 405.756,163.417 404.5,163C 399.804,163.484 396.137,161.817 393.5,158C 385.422,160.439 378.756,158.439 373.5,152C 371.288,151.211 369.288,151.378 367.5,152.5C 366.127,152.657 364.793,152.49 363.5,152C 360.309,149.574 356.975,147.407 353.5,145.5C 355.5,143.167 357.5,140.833 359.5,138.5 Z"/></g>
<g><path style="opacity:0.925" fill="#9d4399" d="M 350.5,144.5 C 350.5,144.833 350.5,145.167 350.5,145.5C 348.969,146.925 349.302,147.591 351.5,147.5C 351.5,148.167 351.167,148.5 350.5,148.5C 349.5,148.5 348.5,148.5 347.5,148.5C 348.026,146.77 349.026,145.436 350.5,144.5 Z"/></g>
<g><path style="opacity:1" fill="#fdbd46" d="M 350.5,145.5 C 351.5,145.5 352.5,145.5 353.5,145.5C 356.975,147.407 360.309,149.574 363.5,152C 364.793,152.49 366.127,152.657 367.5,152.5C 365.712,153.622 363.712,153.789 361.5,153C 358.822,149.83 355.488,147.997 351.5,147.5C 349.302,147.591 348.969,146.925 350.5,145.5 Z"/></g>
<g><path style="opacity:0.8" fill="#31c973" d="M 347.5,148.5 C 348.5,148.5 349.5,148.5 350.5,148.5C 348.167,151.167 345.833,153.833 343.5,156.5C 342.391,156.557 341.391,156.89 340.5,157.5C 342.091,154.569 344.091,151.902 346.5,149.5C 347.167,149.5 347.5,149.167 347.5,148.5 Z"/></g>
<g><path style="opacity:1" fill="#ffc759" d="M 358.5,138.5 C 358.5,137.833 358.833,137.5 359.5,137.5C 360.167,137.5 360.833,137.5 361.5,137.5C 363.27,138.764 364.937,140.264 366.5,142C 369.811,141.785 373.144,141.785 376.5,142C 377.257,143.512 378.257,144.846 379.5,146C 385.376,144.173 390.376,145.507 394.5,150C 398.473,150.28 402.306,151.114 406,152.5C 407.256,152.352 408.423,152.018 409.5,151.5C 409.5,152.167 409.5,152.833 409.5,153.5C 406.905,155.774 404.238,155.607 401.5,153C 396.758,153.487 393.092,151.82 390.5,148C 386.823,147.892 383.157,147.892 379.5,148C 377.833,146.333 376.167,144.667 374.5,143C 371.54,143.32 368.54,143.32 365.5,143C 363.34,141.668 361.34,140.168 359.5,138.5C 359.167,138.5 358.833,138.5 358.5,138.5 Z"/></g>
<g><path style="opacity:1" fill="#ffc042" d="M 367.5,152.5 C 369.288,151.378 371.288,151.211 373.5,152C 378.756,158.439 385.422,160.439 393.5,158C 396.137,161.817 399.804,163.484 404.5,163C 405.756,163.417 406.423,164.25 406.5,165.5C 406.5,166.167 406.5,166.833 406.5,167.5C 404.075,164.238 400.742,162.738 396.5,163C 395.167,161.667 393.833,160.333 392.5,159C 388.533,159.54 384.533,159.874 380.5,160C 377.872,158.374 375.539,156.374 373.5,154C 371.655,152.872 369.655,152.372 367.5,152.5 Z"/></g>
<g><path style="opacity:1" fill="#fcfaf9" d="M 366.5,165.5 C 366.073,169.824 365.739,174.158 365.5,178.5C 361.457,176.802 357.123,175.969 352.5,176C 349.413,171.835 345.746,171.335 341.5,174.5C 339.444,173.952 337.777,172.786 336.5,171C 333.635,170.817 330.969,170.317 328.5,169.5C 329.873,169.657 331.207,169.49 332.5,169C 334.4,166.665 336.4,164.498 338.5,162.5C 339.5,162.167 340.167,161.5 340.5,160.5C 346.492,155.735 351.159,156.902 354.5,164C 358.688,164.176 362.688,164.676 366.5,165.5 Z"/></g>
<g><path style="opacity:0.8" fill="#36c776" d="M 338.5,162.5 C 336.4,164.498 334.4,166.665 332.5,169C 331.207,169.49 329.873,169.657 328.5,169.5C 330.628,166.87 332.961,164.37 335.5,162C 336.749,161.26 337.749,161.427 338.5,162.5 Z"/></g>
<g><path style="opacity:1" fill="#febe43" d="M 367.5,165.5 C 367.167,165.5 366.833,165.5 366.5,165.5C 362.688,164.676 358.688,164.176 354.5,164C 351.159,156.902 346.492,155.735 340.5,160.5C 339.448,160.649 338.448,160.483 337.5,160C 338.942,159.623 339.942,158.79 340.5,157.5C 341.391,156.89 342.391,156.557 343.5,156.5C 345.455,155.677 347.455,155.51 349.5,156C 351.833,158.333 354.167,160.667 356.5,163C 364.483,161.866 371.149,164.199 376.5,170C 380.841,170.093 385.174,170.093 389.5,170C 391.373,171.085 393.04,172.418 394.5,174C 397.289,174.241 399.956,174.908 402.5,176C 397.481,176.882 393.147,175.549 389.5,172C 385.159,171.907 380.826,171.907 376.5,172C 374.161,168.814 371.161,166.648 367.5,165.5 Z"/></g>
<g><path style="opacity:0.929" fill="#111e19" d="M 366.5,165.5 C 366.833,165.5 367.167,165.5 367.5,165.5C 368.008,185.831 368.508,206.164 369,226.5C 369.186,229.036 369.686,231.369 370.5,233.5C 370.794,238.261 371.627,242.928 373,247.5C 380.971,253.559 389.138,259.226 397.5,264.5C 395.784,264.371 394.117,264.038 392.5,263.5C 386.205,260.686 380.205,257.353 374.5,253.5C 373.791,252.596 372.791,252.263 371.5,252.5C 371.334,260.507 371.5,268.507 372,276.5C 379.492,286.15 386.492,296.15 393,306.5C 393.999,315.182 392.666,323.515 389,331.5C 377.634,357.91 363.967,382.91 348,406.5C 347.517,407.448 347.351,408.448 347.5,409.5C 349.263,412.556 351.93,414.389 355.5,415C 366.273,416.954 376.94,419.287 387.5,422C 391.768,425.303 393.102,429.47 391.5,434.5C 366.5,434.5 341.5,434.5 316.5,434.5C 316.191,429.733 316.691,425.066 318,420.5C 321.127,415.299 324.461,410.299 328,405.5C 331.142,396.574 333.976,387.574 336.5,378.5C 337.167,378.5 337.5,378.167 337.5,377.5C 340.474,371.889 343.141,366.223 345.5,360.5C 347.875,355.047 349.875,349.381 351.5,343.5C 345.732,343.721 340.065,343.721 334.5,343.5C 339.752,336.663 343.085,328.997 344.5,320.5C 345.212,314.021 342.878,308.854 337.5,305C 328.773,301.202 319.773,298.202 310.5,296C 305.96,294.662 302.293,295.829 299.5,299.5C 298.5,299.5 297.5,299.5 296.5,299.5C 297.458,298.038 298.624,296.705 300,295.5C 300.614,293.687 300.281,293.353 299,294.5C 298.147,292.875 297.147,292.542 296,293.5C 294.53,292.733 293.03,292.067 291.5,291.5C 291.082,290.778 290.416,290.278 289.5,290C 289.728,289.601 290.062,289.435 290.5,289.5C 312.679,293.746 335.012,294.58 357.5,292C 359.901,291.205 362.068,290.038 364,288.5C 365.214,283.886 366.214,279.22 367,274.5C 367.1,265.572 367.934,256.739 369.5,248C 366.943,231.256 365.276,214.423 364.5,197.5C 364.5,196.833 364.5,196.167 364.5,195.5C 364.5,190.833 364.5,186.167 364.5,181.5C 365.404,180.791 365.737,179.791 365.5,178.5C 365.739,174.158 366.073,169.824 366.5,165.5 Z M 337.5,418.5 C 337.64,420.124 336.973,421.29 335.5,422C 336.772,423.307 337.772,424.807 338.5,426.5C 340.22,425.045 342.22,424.212 344.5,424C 342.996,422.509 342.163,420.676 342,418.5C 341.023,419.774 340.189,419.774 339.5,418.5C 341.437,417.069 343.27,415.402 345,413.5C 345.833,415 347,416.167 348.5,417C 358.798,419.491 369.131,421.824 379.5,424C 381.779,424.473 383.779,425.473 385.5,427C 364.169,427.5 342.836,427.667 321.5,427.5C 321.841,423.646 323.174,420.146 325.5,417C 329.302,418.142 333.302,418.642 337.5,418.5 Z M 322.5,432.5 C 343.663,431.337 364.996,431.171 386.5,432C 365.109,433.518 343.776,433.685 322.5,432.5 Z"/></g>
<g><path style="opacity:1" fill="#fefcfb" d="M 329.5,171.5 C 333.164,171 336.164,172.167 338.5,175C 342.194,175.278 345.861,175.278 349.5,175C 350.5,176 351.5,177 352.5,178C 356.211,178.175 359.878,178.675 363.5,179.5C 363.863,180.183 364.196,180.85 364.5,181.5C 364.5,186.167 364.5,190.833 364.5,195.5C 362.745,194.928 361.078,194.094 359.5,193C 354.5,192.667 349.5,192.333 344.5,192C 339.651,188.44 334.317,187.607 328.5,189.5C 325.893,188.863 323.56,187.696 321.5,186C 318.854,185.503 316.187,185.336 313.5,185.5C 316.762,183.58 319.762,181.246 322.5,178.5C 325.811,177.189 328.145,174.855 329.5,171.5 Z"/></g>
<g><path style="opacity:0.8" fill="#2fcb71" d="M 324.5,172.5 C 325.552,172.351 326.552,172.517 327.5,173C 325.627,174.704 323.96,176.537 322.5,178.5C 319.762,181.246 316.762,183.58 313.5,185.5C 313.167,185.5 312.833,185.5 312.5,185.5C 312.167,185.5 311.833,185.5 311.5,185.5C 316.14,181.527 320.473,177.194 324.5,172.5 Z"/></g>
<g><path style="opacity:1" fill="#fdc14a" d="M 327.5,169.5 C 327.833,169.5 328.167,169.5 328.5,169.5C 330.969,170.317 333.635,170.817 336.5,171C 337.777,172.786 339.444,173.952 341.5,174.5C 345.746,171.335 349.413,171.835 352.5,176C 357.123,175.969 361.457,176.802 365.5,178.5C 365.737,179.791 365.404,180.791 364.5,181.5C 364.196,180.85 363.863,180.183 363.5,179.5C 359.878,178.675 356.211,178.175 352.5,178C 351.5,177 350.5,176 349.5,175C 345.861,175.278 342.194,175.278 338.5,175C 336.164,172.167 333.164,171 329.5,171.5C 328.167,171.5 327.5,170.833 327.5,169.5 Z"/></g>
<g><path style="opacity:0.992" fill="#c692e7" d="M 327.5,169.5 C 327.5,170.833 328.167,171.5 329.5,171.5C 328.145,174.855 325.811,177.189 322.5,178.5C 323.96,176.537 325.627,174.704 327.5,173C 326.552,172.517 325.552,172.351 324.5,172.5C 325.167,171.167 326.167,170.167 327.5,169.5 Z"/></g>
<g><path style="opacity:1" fill="#ffc44e" d="M 399.5,187.5 C 399.5,187.833 399.5,188.167 399.5,188.5C 396.543,187.363 393.71,186.029 391,184.5C 386.345,187.135 381.845,186.968 377.5,184C 374.764,183.578 372.098,183.578 369.5,184C 371.269,182.686 373.269,181.853 375.5,181.5C 378.196,182.558 380.863,183.558 383.5,184.5C 389.535,182.414 394.868,183.414 399.5,187.5 Z"/></g>
<g><path style="opacity:0.8" fill="#2fcb71" d="M 311.5,185.5 C 311.657,186.873 311.49,188.207 311,189.5C 307.544,193.789 304.711,198.456 302.5,203.5C 301.833,203.5 301.167,203.5 300.5,203.5C 302.664,196.49 306.331,190.49 311.5,185.5 Z"/></g>
<g><path style="opacity:1" fill="#ffbf3e" d="M 312.5,185.5 C 312.833,185.5 313.167,185.5 313.5,185.5C 316.187,185.336 318.854,185.503 321.5,186C 323.56,187.696 325.893,188.863 328.5,189.5C 334.317,187.607 339.651,188.44 344.5,192C 349.5,192.333 354.5,192.667 359.5,193C 361.078,194.094 362.745,194.928 364.5,195.5C 364.5,196.167 364.5,196.833 364.5,197.5C 362.577,197.205 360.91,196.372 359.5,195C 354.5,194.667 349.5,194.333 344.5,194C 339.309,190.411 333.642,189.578 327.5,191.5C 325.394,190.57 323.394,189.404 321.5,188C 318.008,188.07 315.008,187.237 312.5,185.5 Z"/></g>
<g><path style="opacity:1" fill="#fcfbf9" d="M 351.5,147.5 C 355.488,147.997 358.822,149.83 361.5,153C 363.712,153.789 365.712,153.622 367.5,152.5C 369.655,152.372 371.655,152.872 373.5,154C 375.539,156.374 377.872,158.374 380.5,160C 384.533,159.874 388.533,159.54 392.5,159C 393.833,160.333 395.167,161.667 396.5,163C 400.742,162.738 404.075,164.238 406.5,167.5C 404.537,174.392 402.204,181.059 399.5,187.5C 394.868,183.414 389.535,182.414 383.5,184.5C 380.863,183.558 378.196,182.558 375.5,181.5C 373.269,181.853 371.269,182.686 369.5,184C 372.098,183.578 374.764,183.578 377.5,184C 381.845,186.968 386.345,187.135 391,184.5C 393.71,186.029 396.543,187.363 399.5,188.5C 399.142,191.689 398.475,194.689 397.5,197.5C 395.042,195.699 392.376,194.366 389.5,193.5C 384.527,195.003 379.694,194.67 375,192.5C 369.024,194.147 369.024,194.48 375,193.5C 379.437,196.634 384.27,197.3 389.5,195.5C 392.148,196.463 394.814,197.463 397.5,198.5C 397.351,210.852 397.685,223.185 398.5,235.5C 396.804,235.315 395.471,234.481 394.5,233C 391.145,232.454 387.812,232.621 384.5,233.5C 381.93,232.786 379.43,231.786 377,230.5C 374.518,231.039 372.352,232.039 370.5,233.5C 369.686,231.369 369.186,229.036 369,226.5C 368.508,206.164 368.008,185.831 367.5,165.5C 371.161,166.648 374.161,168.814 376.5,172C 380.826,171.907 385.159,171.907 389.5,172C 393.147,175.549 397.481,176.882 402.5,176C 399.956,174.908 397.289,174.241 394.5,174C 393.04,172.418 391.373,171.085 389.5,170C 385.174,170.093 380.841,170.093 376.5,170C 371.149,164.199 364.483,161.866 356.5,163C 354.167,160.667 351.833,158.333 349.5,156C 347.455,155.51 345.455,155.677 343.5,156.5C 345.833,153.833 348.167,151.167 350.5,148.5C 351.167,148.5 351.5,148.167 351.5,147.5 Z"/></g>
<g><path style="opacity:1" fill="#ffcd6a" d="M 397.5,197.5 C 397.5,197.833 397.5,198.167 397.5,198.5C 394.814,197.463 392.148,196.463 389.5,195.5C 384.27,197.3 379.437,196.634 375,193.5C 369.024,194.48 369.024,194.147 375,192.5C 379.694,194.67 384.527,195.003 389.5,193.5C 392.376,194.366 395.042,195.699 397.5,197.5 Z"/></g>
<g><path style="opacity:1" fill="#febc3e" d="M 300.5,203.5 C 301.167,203.5 301.833,203.5 302.5,203.5C 306.066,203.315 309.399,203.981 312.5,205.5C 316.144,204.585 319.81,204.419 323.5,205C 326.55,206.198 329.55,207.365 332.5,208.5C 336.144,207.585 339.81,207.419 343.5,208C 350.645,209.619 357.645,211.952 364.5,215C 358.687,213.41 352.687,212.41 346.5,212C 342.162,209.209 337.496,208.709 332.5,210.5C 329.55,209.365 326.55,208.198 323.5,207C 319.81,206.419 316.144,206.585 312.5,207.5C 308.984,206.081 305.318,205.414 301.5,205.5C 300.5,205.5 299.5,205.5 298.5,205.5C 299.167,204.833 299.833,204.167 300.5,203.5 Z"/></g>
<g><path style="opacity:0.8" fill="#2ecc70" d="M 298.5,205.5 C 299.5,205.5 300.5,205.5 301.5,205.5C 299.229,209.709 297.229,214.042 295.5,218.5C 294.5,218.5 293.5,218.5 292.5,218.5C 294.771,214.291 296.771,209.958 298.5,205.5 Z"/></g>
<g><path style="opacity:1" fill="#ffc34b" d="M 374.5,203.5 C 377.231,204.607 380.064,205.607 383,206.5C 388.094,204.558 392.594,205.392 396.5,209C 393.883,208.765 391.383,207.932 389,206.5C 383.051,207.277 377.218,207.277 371.5,206.5C 371.167,206.333 370.833,206.167 370.5,206C 371.858,205.066 373.192,204.232 374.5,203.5 Z"/></g>
<g><path style="opacity:0.8" fill="#2fcb71" d="M 292.5,218.5 C 292.842,219.338 293.508,219.672 294.5,219.5C 291.911,225.016 288.578,230.016 284.5,234.5C 283.833,234.5 283.167,234.5 282.5,234.5C 285.836,229.159 289.17,223.825 292.5,218.5 Z"/></g>
<g><path style="opacity:1" fill="#ffbf42" d="M 294.5,219.5 C 293.508,219.672 292.842,219.338 292.5,218.5C 293.5,218.5 294.5,218.5 295.5,218.5C 300.487,216.873 305.153,217.54 309.5,220.5C 315.738,217.651 321.738,218.151 327.5,222C 332.505,222.082 337.505,222.082 342.5,222C 346.653,224.915 351.32,226.249 356.5,226C 359.648,227.076 362.648,228.409 365.5,230C 359.383,228.282 353.05,227.282 346.5,227C 344.194,225.014 341.528,223.847 338.5,223.5C 334.856,224.415 331.19,224.581 327.5,224C 321.59,220.107 315.424,219.607 309,222.5C 304.586,219.835 299.753,218.835 294.5,219.5 Z"/></g>
<g><path style="opacity:1" fill="#ffcc67" d="M 373.5,218.5 C 374.097,217.861 374.93,217.528 376,217.5C 378.163,218.641 380.496,219.307 383,219.5C 388.492,217.214 392.992,218.381 396.5,223C 394.079,222.326 391.579,221.492 389,220.5C 386.984,220.74 384.984,221.074 383,221.5C 379.884,220.188 376.718,219.188 373.5,218.5 Z"/></g>
<g><path style="opacity:1" fill="#ffc34b" d="M 398.5,235.5 C 398.5,235.833 398.5,236.167 398.5,236.5C 395.91,235.748 393.41,234.748 391,233.5C 384.064,234.183 377.231,234.183 370.5,233.5C 372.352,232.039 374.518,231.039 377,230.5C 379.43,231.786 381.93,232.786 384.5,233.5C 387.812,232.621 391.145,232.454 394.5,233C 395.471,234.481 396.804,235.315 398.5,235.5 Z"/></g>
<g><path style="opacity:1" fill="#fdfcfb" d="M 311.5,185.5 C 311.833,185.5 312.167,185.5 312.5,185.5C 315.008,187.237 318.008,188.07 321.5,188C 323.394,189.404 325.394,190.57 327.5,191.5C 333.642,189.578 339.309,190.411 344.5,194C 349.5,194.333 354.5,194.667 359.5,195C 360.91,196.372 362.577,197.205 364.5,197.5C 365.276,214.423 366.943,231.256 369.5,248C 367.934,256.739 367.1,265.572 367,274.5C 366.214,279.22 365.214,283.886 364,288.5C 362.068,290.038 359.901,291.205 357.5,292C 335.012,294.58 312.679,293.746 290.5,289.5C 281.701,286.434 273.368,282.267 265.5,277C 262.212,274.194 259.546,271.027 257.5,267.5C 255.753,259.72 258.087,253.553 264.5,249C 271.354,245.408 277.687,241.075 283.5,236C 282.944,235.617 282.611,235.117 282.5,234.5C 283.167,234.5 283.833,234.5 284.5,234.5C 288.578,230.016 291.911,225.016 294.5,219.5C 299.753,218.835 304.586,219.835 309,222.5C 315.424,219.607 321.59,220.107 327.5,224C 331.19,224.581 334.856,224.415 338.5,223.5C 341.528,223.847 344.194,225.014 346.5,227C 353.05,227.282 359.383,228.282 365.5,230C 362.648,228.409 359.648,227.076 356.5,226C 351.32,226.249 346.653,224.915 342.5,222C 337.505,222.082 332.505,222.082 327.5,222C 321.738,218.151 315.738,217.651 309.5,220.5C 305.153,217.54 300.487,216.873 295.5,218.5C 297.229,214.042 299.229,209.709 301.5,205.5C 305.318,205.414 308.984,206.081 312.5,207.5C 316.144,206.585 319.81,206.419 323.5,207C 326.55,208.198 329.55,209.365 332.5,210.5C 337.496,208.709 342.162,209.209 346.5,212C 352.687,212.41 358.687,213.41 364.5,215C 357.645,211.952 350.645,209.619 343.5,208C 339.81,207.419 336.144,207.585 332.5,208.5C 329.55,207.365 326.55,206.198 323.5,205C 319.81,204.419 316.144,204.585 312.5,205.5C 309.399,203.981 306.066,203.315 302.5,203.5C 304.711,198.456 307.544,193.789 311,189.5C 311.49,188.207 311.657,186.873 311.5,185.5 Z"/></g>
<g><path style="opacity:1" fill="#ffbd3a" d="M 284.5,234.5 C 290.599,233.024 296.599,233.357 302.5,235.5C 309.887,233.53 316.887,234.364 323.5,238C 329.162,237.927 334.829,237.927 340.5,238C 348.986,239.617 357.319,241.95 365.5,245C 358.64,243.543 351.64,242.543 344.5,242C 338.737,239.249 332.737,238.749 326.5,240.5C 323.298,239.901 320.298,238.734 317.5,237C 312.476,236.335 307.476,236.502 302.5,237.5C 296.453,236.096 290.453,235.096 284.5,234.5 Z"/></g>
<g><path style="opacity:1" fill="#221d3f" d="M 344.5,147.5 C 344.5,148.833 345.167,149.5 346.5,149.5C 344.091,151.902 342.091,154.569 340.5,157.5C 339.942,158.79 338.942,159.623 337.5,160C 338.448,160.483 339.448,160.649 340.5,160.5C 340.167,161.5 339.5,162.167 338.5,162.5C 337.749,161.427 336.749,161.26 335.5,162C 332.961,164.37 330.628,166.87 328.5,169.5C 328.167,169.5 327.833,169.5 327.5,169.5C 326.167,170.167 325.167,171.167 324.5,172.5C 320.473,177.194 316.14,181.527 311.5,185.5C 306.331,190.49 302.664,196.49 300.5,203.5C 299.833,204.167 299.167,204.833 298.5,205.5C 296.771,209.958 294.771,214.291 292.5,218.5C 289.17,223.825 285.836,229.159 282.5,234.5C 273.94,240.702 265.44,247.036 257,253.5C 253.551,258.409 253.718,263.075 257.5,267.5C 259.546,271.027 262.212,274.194 265.5,277C 273.368,282.267 281.701,286.434 290.5,289.5C 290.062,289.435 289.728,289.601 289.5,290C 290.416,290.278 291.082,290.778 291.5,291.5C 281.472,289.154 272.139,285.154 263.5,279.5C 260.616,281.624 257.949,283.958 255.5,286.5C 254.761,286.369 254.094,286.536 253.5,287C 248.56,291.432 244.227,296.265 240.5,301.5C 240.167,300.5 239.5,299.833 238.5,299.5C 244.25,290.914 251.25,283.414 259.5,277C 249.854,269.315 248.02,260.148 254,249.5C 259.761,245.367 265.927,241.867 272.5,239C 278.096,233.407 282.93,227.24 287,220.5C 293.58,208.337 300.414,196.337 307.5,184.5C 320.881,173.119 333.215,160.785 344.5,147.5 Z"/></g>
<g><path style="opacity:0.8" fill="#30ca72" d="M 282.5,234.5 C 282.611,235.117 282.944,235.617 283.5,236C 277.687,241.075 271.354,245.408 264.5,249C 258.087,253.553 255.753,259.72 257.5,267.5C 253.718,263.075 253.551,258.409 257,253.5C 265.44,247.036 273.94,240.702 282.5,234.5 Z"/></g>
<g><path style="opacity:1" fill="#ffc043" d="M 276.5,245.5 C 282.311,245.209 287.978,245.876 293.5,247.5C 298.816,246.557 304.149,246.39 309.5,247C 313,248.753 316.667,249.92 320.5,250.5C 325.483,249.577 330.483,249.41 335.5,250C 344.973,251.566 354.306,253.899 363.5,257C 352.279,255.633 341.112,253.799 330,251.5C 325.18,252.366 320.347,252.533 315.5,252C 308.366,248.471 300.866,247.638 293,249.5C 285.917,248.029 278.75,247.196 271.5,247C 273.382,246.802 275.048,246.302 276.5,245.5 Z"/></g>
<g><path style="opacity:1" fill="#fcf6ec" d="M 398.5,236.5 C 400.782,240.201 403.449,243.701 406.5,247C 418.551,257.557 431.551,266.724 445.5,274.5C 446.562,275.425 446.562,276.425 445.5,277.5C 443.104,279.945 440.938,282.612 439,285.5C 424.793,279.099 410.96,272.099 397.5,264.5C 389.138,259.226 380.971,253.559 373,247.5C 371.627,242.928 370.794,238.261 370.5,233.5C 377.231,234.183 384.064,234.183 391,233.5C 393.41,234.748 395.91,235.748 398.5,236.5 Z"/></g>
<g><path style="opacity:1" fill="#ffca61" d="M 393.5,242.5 C 396.893,242.062 399.893,242.895 402.5,245C 402,245.167 401.5,245.333 401,245.5C 399.604,244.606 398.104,243.939 396.5,243.5C 391.899,246.96 387.066,247.293 382,244.5C 380.202,245.504 378.368,246.004 376.5,246C 379.973,243.175 383.806,242.675 388,244.5C 390.221,244.607 392.054,243.94 393.5,242.5 Z"/></g>
<g><path style="opacity:1" fill="#d1c2e7" d="M 405.5,184.5 C 403.43,196.236 402.097,208.07 401.5,220C 401.884,225.903 402.717,231.736 404,237.5C 408.48,242.311 413.313,246.811 418.5,251C 428.894,257.393 438.727,264.56 448,272.5C 449.4,271.884 450.9,271.551 452.5,271.5C 457.095,271.032 459.595,273.032 460,277.5C 461.667,278.733 463.167,280.067 464.5,281.5C 464.167,281.5 463.833,281.5 463.5,281.5C 459.627,279.87 456.96,277.037 455.5,273C 452.486,272.872 449.486,272.872 446.5,273C 431.195,263.7 417.028,252.867 404,240.5C 402.257,237.043 401.257,233.377 401,229.5C 399.618,214.639 400.618,199.972 404,185.5C 404.383,184.944 404.883,184.611 405.5,184.5 Z"/></g>
<g><path style="opacity:1" fill="#ffc042" d="M 268.5,257.5 C 277.333,257.667 286.333,257.667 295.5,257.5C 306.261,259.541 317.094,261.208 328,262.5C 338.649,259.945 348.149,262.111 356.5,269C 351.703,267.121 346.703,265.455 341.5,264C 336.98,263.401 332.48,263.568 328,264.5C 321.299,262.918 314.466,262.084 307.5,262C 300.388,259.226 293.055,258.726 285.5,260.5C 280.041,258.386 274.375,257.386 268.5,257.5 Z"/></g>
<g><path style="opacity:1" fill="#f2f3f3" d="M 456.5,280.5 C 453.511,285.138 450.511,289.805 447.5,294.5C 444.34,293.678 442.673,291.678 442.5,288.5C 443.221,285.395 444.221,282.395 445.5,279.5C 447.584,277.256 450.084,275.589 453,274.5C 455.909,275.429 457.075,277.429 456.5,280.5 Z"/></g>
<g><path style="opacity:1" fill="#ffbf3e" d="M 269.5,265.5 C 278.393,264.489 286.727,266.156 294.5,270.5C 300.263,268.908 305.763,269.575 311,272.5C 319.04,270.459 326.54,271.626 333.5,276C 341.173,275.08 348.506,276.414 355.5,280C 350.619,279.742 345.785,278.909 341,277.5C 339.14,277.694 337.307,278.028 335.5,278.5C 331.838,277.003 328.172,275.503 324.5,274C 313.405,273.773 302.405,272.773 291.5,271C 282.341,267.167 273.007,266.5 263.5,269C 265.432,267.541 267.432,266.375 269.5,265.5 Z"/></g>
<g><path style="opacity:1" fill="#fbfafd" d="M 291.5,291.5 C 293.03,292.067 294.53,292.733 296,293.5C 297.147,292.542 298.147,292.875 299,294.5C 300.281,293.353 300.614,293.687 300,295.5C 298.624,296.705 297.458,298.038 296.5,299.5C 279.129,317.354 259.129,331.521 236.5,342C 235.167,342.667 233.833,342.667 232.5,342C 227.64,337.64 223.306,332.806 219.5,327.5C 217.435,326.143 215.435,324.81 213.5,323.5C 217.939,323.246 222.272,322.412 226.5,321C 227.823,320.184 228.489,319.017 228.5,317.5C 232.234,314.769 235.234,311.436 237.5,307.5C 244.2,301.099 250.2,294.099 255.5,286.5C 257.949,283.958 260.616,281.624 263.5,279.5C 272.139,285.154 281.472,289.154 291.5,291.5 Z"/></g>
<g><path style="opacity:1" fill="#fbfbfb" d="M 369.5,280.5 C 370.496,280.414 371.329,280.748 372,281.5C 377.926,289.694 383.592,298.027 389,306.5C 389.418,317.661 386.918,328.161 381.5,338C 379.913,338.862 378.246,339.529 376.5,340C 364.5,340.667 352.5,340.667 340.5,340C 346.271,331.356 348.771,321.856 348,311.5C 346.969,308.461 345.135,305.961 342.5,304C 337.62,301.393 332.62,299.06 327.5,297C 339.823,298.646 351.823,297.313 363.5,293C 368.025,290.115 370.025,285.948 369.5,280.5 Z"/></g>
<g><path style="opacity:0.8" fill="#31c972" d="M 255.5,286.5 C 250.2,294.099 244.2,301.099 237.5,307.5C 238.471,305.517 239.471,303.517 240.5,301.5C 244.227,296.265 248.56,291.432 253.5,287C 254.094,286.536 254.761,286.369 255.5,286.5 Z"/></g>
<g><path style="opacity:1" fill="#1a2028" d="M 238.5,299.5 C 239.5,299.833 240.167,300.5 240.5,301.5C 239.471,303.517 238.471,305.517 237.5,307.5C 235.234,311.436 232.234,314.769 228.5,317.5C 222.977,319.464 217.31,320.964 211.5,322C 212.044,322.717 212.711,323.217 213.5,323.5C 215.435,324.81 217.435,326.143 219.5,327.5C 223.306,332.806 227.64,337.64 232.5,342C 233.833,342.667 235.167,342.667 236.5,342C 259.129,331.521 279.129,317.354 296.5,299.5C 297.5,299.5 298.5,299.5 299.5,299.5C 287.405,311.597 274.405,322.597 260.5,332.5C 253.739,336.078 247.072,339.911 240.5,344C 222.686,350.136 204.353,353.803 185.5,355C 166.995,355.168 148.662,355.668 130.5,356.5C 127.275,358.213 124.441,360.546 122,363.5C 117.273,369.897 112.94,376.564 109,383.5C 106.45,387.607 102.783,389.607 98,389.5C 93.8201,389.997 90.9868,388.331 89.5,384.5C 96.9366,364.689 104.27,344.855 111.5,325C 121.355,324.094 129.022,327.761 134.5,336C 142.459,335.366 150.459,334.866 158.5,334.5C 174.3,333.41 189.967,331.243 205.5,328C 207.384,327.784 209.051,327.117 210.5,326C 209.473,325.487 208.473,324.987 207.5,324.5C 205.439,323.249 205.106,321.582 206.5,319.5C 213.017,318.303 219.35,316.469 225.5,314C 230.44,309.568 234.773,304.735 238.5,299.5 Z"/></g>
<g><path style="opacity:0.853" fill="#eae2f3" d="M 374.5,253.5 C 374.334,260.508 374.5,267.508 375,274.5C 381.438,281.604 387.105,289.27 392,297.5C 396.619,306.787 397.619,316.454 395,326.5C 390.685,337.127 385.852,347.46 380.5,357.5C 370,375.172 359,392.505 347.5,409.5C 347.351,408.448 347.517,407.448 348,406.5C 363.967,382.91 377.634,357.91 389,331.5C 392.666,323.515 393.999,315.182 393,306.5C 386.492,296.15 379.492,286.15 372,276.5C 371.5,268.507 371.334,260.507 371.5,252.5C 372.791,252.263 373.791,252.596 374.5,253.5 Z"/></g>
<g><path style="opacity:1" fill="#232735" d="M 392.5,263.5 C 394.117,264.038 395.784,264.371 397.5,264.5C 410.96,272.099 424.793,279.099 439,285.5C 440.938,282.612 443.104,279.945 445.5,277.5C 445.5,278.167 445.5,278.833 445.5,279.5C 444.221,282.395 443.221,285.395 442.5,288.5C 442.673,291.678 444.34,293.678 447.5,294.5C 450.511,289.805 453.511,285.138 456.5,280.5C 456.5,281.167 456.833,281.5 457.5,281.5C 455.904,284.361 454.57,287.361 453.5,290.5C 456.765,293.262 459.932,296.262 463,299.5C 464.943,303.726 467.11,307.726 469.5,311.5C 469.953,308.482 470.287,305.482 470.5,302.5C 471.909,305.9 473.409,309.233 475,312.5C 475.762,308.668 475.262,305.002 473.5,301.5C 474.002,300.479 474.668,300.312 475.5,301C 476.708,303.25 478.041,305.417 479.5,307.5C 480.641,305.579 480.808,303.579 480,301.5C 478.548,297.263 476.548,293.263 474,289.5C 470.186,287.016 466.353,284.682 462.5,282.5C 463.167,282.5 463.5,282.167 463.5,281.5C 463.833,281.5 464.167,281.5 464.5,281.5C 477.848,286.322 483.348,295.656 481,309.5C 480,310.833 479,310.833 478,309.5C 477.749,311.433 477.249,313.266 476.5,315C 474.138,314.496 471.805,314.663 469.5,315.5C 468.833,315.167 468.167,314.833 467.5,314.5C 465.418,308.503 462.418,303.003 458.5,298C 456.63,296.634 454.63,295.467 452.5,294.5C 449.326,296.969 445.993,297.136 442.5,295C 440.5,292.667 438.5,290.333 436.5,288C 420.996,281.088 406.33,272.921 392.5,263.5 Z"/></g>
<g><path style="opacity:1" fill="#f3f4f5" d="M 457.5,281.5 C 459.216,281.629 460.883,281.962 462.5,282.5C 466.353,284.682 470.186,287.016 474,289.5C 476.548,293.263 478.548,297.263 480,301.5C 480.808,303.579 480.641,305.579 479.5,307.5C 478.041,305.417 476.708,303.25 475.5,301C 474.668,300.312 474.002,300.479 473.5,301.5C 475.262,305.002 475.762,308.668 475,312.5C 473.409,309.233 471.909,305.9 470.5,302.5C 470.287,305.482 469.953,308.482 469.5,311.5C 467.11,307.726 464.943,303.726 463,299.5C 459.932,296.262 456.765,293.262 453.5,290.5C 454.57,287.361 455.904,284.361 457.5,281.5 Z"/></g>
<g><path style="opacity:0.8" fill="#30cb72" d="M 228.5,317.5 C 228.489,319.017 227.823,320.184 226.5,321C 222.272,322.412 217.939,323.246 213.5,323.5C 212.711,323.217 212.044,322.717 211.5,322C 217.31,320.964 222.977,319.464 228.5,317.5 Z"/></g>
<g><path style="opacity:1" fill="#f6f6f5" d="M 118.5,329.5 C 123.809,330.158 127.809,332.824 130.5,337.5C 128.658,338.842 127.158,340.509 126,342.5C 125.01,346.444 125.51,350.111 127.5,353.5C 120.096,360.081 113.929,367.748 109,376.5C 106.62,379.924 103.787,382.924 100.5,385.5C 99.3526,383.235 99.1859,380.902 100,378.5C 106.468,362.26 112.635,345.926 118.5,329.5 Z"/></g>
<g><path style="opacity:1" fill="#f7f8f8" d="M 213.5,328.5 C 214.822,328.33 215.989,328.663 217,329.5C 220.419,334.923 224.585,339.756 229.5,344C 198.157,353.181 166.157,355.848 133.5,352C 128.374,350.427 127.207,347.26 130,342.5C 131.945,341.137 134.112,340.303 136.5,340C 162.657,338.526 188.323,334.693 213.5,328.5 Z"/></g>
<g><path style="opacity:1" fill="#c0afda" d="M 207.5,324.5 C 208.473,324.987 209.473,325.487 210.5,326C 209.051,327.117 207.384,327.784 205.5,328C 189.967,331.243 174.3,333.41 158.5,334.5C 174.494,332.444 190.494,329.611 206.5,326C 207.056,325.617 207.389,325.117 207.5,324.5 Z"/></g>
<g><path style="opacity:1" fill="#d5c5ea" d="M 260.5,332.5 C 255.029,337.801 249.362,342.967 243.5,348C 240.382,349.893 237.049,351.226 233.5,352C 199.291,356.604 164.957,358.104 130.5,356.5C 148.662,355.668 166.995,355.168 185.5,355C 204.353,353.803 222.686,350.136 240.5,344C 247.072,339.911 253.739,336.078 260.5,332.5 Z"/></g>
<g><path style="opacity:1" fill="#dfd1f1" d="M 344.5,320.5 C 343.085,328.997 339.752,336.663 334.5,343.5C 340.065,343.721 345.732,343.721 351.5,343.5C 349.875,349.381 347.875,355.047 345.5,360.5C 346.487,355.883 347.154,351.216 347.5,346.5C 342.821,346.666 338.155,346.499 333.5,346C 332.978,345.439 332.645,344.772 332.5,344C 336.139,335.887 340.139,328.054 344.5,320.5 Z"/></g>
<g><path style="opacity:0.996" fill="#f8f9f9" d="M 376.5,342.5 C 377.552,342.351 378.552,342.517 379.5,343C 368.484,367.703 355.151,391.036 339.5,413C 336.518,413.498 333.518,413.665 330.5,413.5C 332.814,403.387 335.647,393.387 339,383.5C 345.182,370.786 350.682,357.786 355.5,344.5C 362.655,343.833 369.655,343.167 376.5,342.5 Z"/></g>
<g><path style="opacity:1" fill="#ffbc33" d="M 119.5,343.5 C 123.448,346.997 122.615,349.33 117,350.5C 116.833,349.667 116.667,348.833 116.5,348C 117.008,346.107 118.008,344.607 119.5,343.5 Z"/></g>
<g><path style="opacity:0.8" fill="#2fca71" d="M 111.5,333.5 C 112.097,333.735 112.43,334.235 112.5,335C 107.11,351.843 100.943,368.343 94,384.5C 99.5054,367.486 105.339,350.486 111.5,333.5 Z"/></g>
<g><path style="opacity:0.858" fill="#12191f" d="M 270.5,421.5 C 284.136,427.226 298.469,429.892 313.5,429.5C 313.709,430.086 314.043,430.586 314.5,431C 307.174,431.889 299.841,432.222 292.5,432C 282.46,429.597 272.46,427.097 262.5,424.5C 256.629,421.27 250.296,419.77 243.5,420C 242.643,420.689 241.977,421.522 241.5,422.5C 243.21,423.887 244.877,425.221 246.5,426.5C 245.209,426.263 244.209,426.596 243.5,427.5C 243.833,428.167 244.167,428.833 244.5,429.5C 243.833,429.5 243.167,429.5 242.5,429.5C 241.167,428.067 239.667,426.733 238,425.5C 236.046,420.022 237.879,416.855 243.5,416C 252.61,417.087 261.61,418.92 270.5,421.5 Z"/></g>
<g><path style="opacity:0.796" fill="#2fca71" d="M 262.5,424.5 C 259.5,425.167 256.5,425.833 253.5,426.5C 251.167,426.5 248.833,426.5 246.5,426.5C 244.877,425.221 243.21,423.887 241.5,422.5C 241.977,421.522 242.643,420.689 243.5,420C 250.296,419.77 256.629,421.27 262.5,424.5 Z"/></g>
<g><path style="opacity:0.679" fill="#ffb71d" d="M 337.5,418.5 C 338.167,418.5 338.833,418.5 339.5,418.5C 340.189,419.774 341.023,419.774 342,418.5C 342.163,420.676 342.996,422.509 344.5,424C 342.22,424.212 340.22,425.045 338.5,426.5C 337.772,424.807 336.772,423.307 335.5,422C 336.973,421.29 337.64,420.124 337.5,418.5 Z"/></g>
<g><path style="opacity:0.978" fill="#dde1e5" d="M 475.5,425.5 C 476.525,425.897 476.692,426.563 476,427.5C 463.572,433.311 450.738,438.144 437.5,442C 386.5,442.667 335.5,442.667 284.5,442C 270.216,438.85 256.549,434.017 243.5,427.5C 244.209,426.596 245.209,426.263 246.5,426.5C 248.833,426.5 251.167,426.5 253.5,426.5C 273.962,432.518 294.962,435.185 316.5,434.5C 341.5,434.5 366.5,434.5 391.5,434.5C 405.696,434.707 419.696,434.04 433.5,432.5C 434.833,432.5 436.167,432.5 437.5,432.5C 438.492,432.672 439.158,432.338 439.5,431.5C 439.833,431.5 440.167,431.5 440.5,431.5C 441.791,431.737 442.791,431.404 443.5,430.5C 447.951,429.851 452.284,428.684 456.5,427C 462.787,425.893 469.12,425.393 475.5,425.5 Z M 322.5,432.5 C 343.776,433.685 365.109,433.518 386.5,432C 364.996,431.171 343.663,431.337 322.5,432.5 Z"/></g>
<g><path style="opacity:0.788" fill="#01160a" d="M 244.5,429.5 C 244.167,428.833 243.833,428.167 243.5,427.5C 256.549,434.017 270.216,438.85 284.5,442C 335.5,442.667 386.5,442.667 437.5,442C 450.738,438.144 463.572,433.311 476,427.5C 476.692,426.563 476.525,425.897 475.5,425.5C 477.323,424.507 478.656,423.007 479.5,421C 479.387,419.72 478.72,418.887 477.5,418.5C 465.717,421.537 454.384,425.537 443.5,430.5C 442.209,430.263 441.209,430.596 440.5,431.5C 440.167,431.5 439.833,431.5 439.5,431.5C 438.508,431.328 437.842,431.662 437.5,432.5C 436.167,432.5 434.833,432.5 433.5,432.5C 420.5,432.5 407.5,432.5 394.5,432.5C 394.5,431.167 394.5,429.833 394.5,428.5C 408.504,428.667 422.504,428.5 436.5,428C 446.092,424.469 455.759,421.136 465.5,418C 471.373,416.024 477.373,415.357 483.5,416C 484.814,418.957 484.48,421.79 482.5,424.5C 469.87,433.774 455.87,440.274 440.5,444C 437.167,444.333 433.833,444.667 430.5,445C 438.289,450.228 439.455,456.728 434,464.5C 432.581,465.46 431.081,466.293 429.5,467C 435.5,467.333 441.5,467.667 447.5,468C 448.815,469.395 448.481,470.395 446.5,471C 386.5,471.667 326.5,471.667 266.5,471C 265.167,470 265.167,469 266.5,468C 274.167,467.667 281.833,467.333 289.5,467C 281.623,462.699 279.79,456.533 284,448.5C 285.41,447.213 286.91,446.046 288.5,445C 272.858,442.288 258.191,437.121 244.5,429.5 Z M 475.5,425.5 C 469.12,425.393 462.787,425.893 456.5,427C 452.284,428.684 447.951,429.851 443.5,430.5C 454.384,425.537 465.717,421.537 477.5,418.5C 478.72,418.887 479.387,419.72 479.5,421C 478.656,423.007 477.323,424.507 475.5,425.5 Z M 322.5,432.5 C 343.776,433.685 365.109,433.518 386.5,432C 364.996,431.171 343.663,431.337 322.5,432.5 Z M 301.5,445.5 C 339.998,444.335 378.664,444.169 417.5,445C 410.035,449.02 408.202,454.853 412,462.5C 413.637,464.81 415.804,466.31 418.5,467C 379.167,467.667 339.833,467.667 300.5,467C 307.955,463.916 310.455,458.416 308,450.5C 306.442,447.979 304.275,446.312 301.5,445.5 Z M 293.5,447.5 C 301.931,447.734 305.098,451.734 303,459.5C 297.364,465.009 292.031,464.676 287,458.5C 286.103,452.953 288.27,449.287 293.5,447.5 Z M 422.5,447.5 C 431.912,448.987 434.246,453.654 429.5,461.5C 422.14,465.318 417.14,463.318 414.5,455.5C 415.548,451.119 418.214,448.452 422.5,447.5 Z"/></g>
<g><path style="opacity:0.762" fill="#001609" d="M 294.5,451.5 C 299.512,452.063 300.512,454.229 297.5,458C 292.9,459.583 291.066,458.083 292,453.5C 292.995,452.934 293.828,452.267 294.5,451.5 Z"/></g>
<g><path style="opacity:0.784" fill="#001509" d="M 422.5,451.5 C 425.352,451.352 427.019,452.686 427.5,455.5C 425.118,460.813 422.785,460.813 420.5,455.5C 420.803,453.886 421.47,452.552 422.5,451.5 Z"/></g>
<g><path style="opacity:0.922" fill="#00150b" d="M 176.5,468.5 C 203.167,468.5 229.833,468.5 256.5,468.5C 256.64,470.124 255.973,471.29 254.5,472C 229.167,472.667 203.833,472.667 178.5,472C 177.027,471.29 176.36,470.124 176.5,468.5 Z"/></g>
<g><path style="opacity:0.922" fill="#00150a" d="M 456.5,468.5 C 482.833,468.5 509.167,468.5 535.5,468.5C 535.64,470.124 534.973,471.29 533.5,472C 508.167,472.667 482.833,472.667 457.5,472C 455.627,471.047 455.294,469.88 456.5,468.5 Z"/></g>
</svg>
